<svg id="Capa_1" data-name="Capa 1" xmlns="http://www.w3.org/2000/svg" viewBox="0 0 1080 1080"><polygon points="68.22 930.28 229.85 930.28 229.85 752.05 408.25 930.46 566.53 930.46 566.53 588.11 408.44 588.11 408.44 766.45 231.44 589.45 68.22 589.45 68.22 930.28"/><polygon points="422.83 488.56 566.53 488.56 566.53 286.56 654.36 488.56 771.47 488.56 865.15 286.56 865.15 488.56 1011.78 488.56 1011.78 137.25 803.67 137.25 717.31 353.89 622.16 137.25 422.83 137.25 422.83 488.56"/><path d="M1012,588l-.22,131.85S853.34,936.92,789.89,942.72c-21.34,1.95-13.84-76.61-10.23-119.42a33.26,33.26,0,0,0-4.5-20.42c-5.25-8.44-15.45-15.26-34.47-1.07a75.57,75.57,0,0,0-27.59,41.81C706.34,869.73,691.31,915.75,667,928c-8.18,4.15-17.63-2.94-16.3-12,2.61-17.85,7.77-55.34,16.8-128.83,0,0-2.69-20.74-36.6-20.74V658.61h32.45s-20.74-66.36-8.3-78.8,47.7-10.37,114.06,76.73L769,588Z"/></svg>